<svg width="23" height="20" viewBox="0 0 23 20" fill="none" xmlns="http://www.w3.org/2000/svg">
<path d="M9.65331 20C9.26373 20 8.93716 19.8802 8.67362 19.6406C8.41008 19.401 8.27831 19.1042 8.27831 18.75V11.25L0.303309 2C-0.0404412 1.58333 -0.0920037 1.14583 0.148621 0.6875C0.389246 0.229167 0.807475 0 1.40331 0H20.6533C21.2491 0 21.6674 0.229167 21.908 0.6875C22.1486 1.14583 22.0971 1.58333 21.7533 2L13.7783 11.25V18.75C13.7783 19.1042 13.6465 19.401 13.383 19.6406C13.1195 19.8802 12.7929 20 12.4033 20H9.65331ZM11.0283 10.375L17.8346 2.5H4.22206L11.0283 10.375Z" fill="white"/>
</svg>
