<svg width="52" height="36" viewBox="0 0 52 36" fill="none" xmlns="http://www.w3.org/2000/svg">
<path d="M13.3663 30C11.6047 30 10.1074 29.5625 8.87428 28.6875C7.64118 27.8125 7.02463 26.75 7.02463 25.5H2.79688V9C2.79688 8.175 3.21084 7.46875 4.03878 6.88125C4.86671 6.29375 5.862 6 7.02463 6H36.6189V12H42.9606L49.3022 18V25.5H45.0744C45.0744 26.75 44.4579 27.8125 43.2248 28.6875C41.9917 29.5625 40.4944 30 38.7328 30C36.9712 30 35.4739 29.5625 34.2408 28.6875C33.0077 27.8125 32.3912 26.75 32.3912 25.5H19.7079C19.7079 26.75 19.0914 27.8125 17.8583 28.6875C16.6252 29.5625 15.1278 30 13.3663 30ZM13.3663 27C13.9652 27 14.4672 26.8563 14.8724 26.5688C15.2776 26.2812 15.4801 25.925 15.4801 25.5C15.4801 25.075 15.2776 24.7188 14.8724 24.4313C14.4672 24.1438 13.9652 24 13.3663 24C12.7673 24 12.2653 24.1438 11.8601 24.4313C11.455 24.7188 11.2524 25.075 11.2524 25.5C11.2524 25.925 11.455 26.2812 11.8601 26.5688C12.2653 26.8563 12.7673 27 13.3663 27ZM7.02463 22.5H8.71574C9.31467 22.05 10.0017 21.6875 10.7768 21.4125C11.5519 21.1375 12.415 21 13.3663 21C14.3175 21 15.1807 21.1375 15.9558 21.4125C16.7309 21.6875 17.4179 22.05 18.0168 22.5H32.3912V9H7.02463V22.5ZM38.7328 27C39.3317 27 39.8338 26.8563 40.239 26.5688C40.6441 26.2812 40.8467 25.925 40.8467 25.5C40.8467 25.075 40.6441 24.7188 40.239 24.4313C39.8338 24.1438 39.3317 24 38.7328 24C38.1339 24 37.6318 24.1438 37.2267 24.4313C36.8215 24.7188 36.6189 25.075 36.6189 25.5C36.6189 25.925 36.8215 26.2812 37.2267 26.5688C37.6318 26.8563 38.1339 27 38.7328 27ZM36.6189 19.5H45.6029L40.8467 15H36.6189V19.5Z" fill="white"/>
</svg>
