<svg id="Camada_1" data-name="Camada 1" xmlns="http://www.w3.org/2000/svg" viewBox="0 0 1918 1080"><defs><style>.cls-1{fill:#fff;}</style></defs><path class="cls-1" d="M352.9,481H532.1v29.6q0,24.66-4.39,40.28t-20,24.66q-15.61,9-45.48,12.33t-80.84,3.29H369.88q-52.06,0-83-4.11t-47.4-18.09Q223,555,218.08,528.37t-4.93-71v-5.48q0-44.93,4.93-71.24t21.38-40.28q16.44-14,47.4-18.09t83-4.11h11.51q49.32,0,78.37,3t44.11,10.68q15.07,7.68,19.46,20.83t4.38,33.43v4.93h24.12v-6q0-26.83-6-44.11t-24.11-27.13q-18.09-9.87-51.52-13.7t-88.23-3.84h-12.6q-58.09,0-93.71,5.48T220.82,324q-19.19,16.73-25.75,46.85t-6.58,79.47V459q0,49.88,6.59,80t25.79,46.59q19.22,16.44,54.88,21.92T369.6,613h13.18q54.33,0,88.36-4.1t53-15Q543,583,549.9,563.07t6.86-52.14V460.14H352.9Z"/><path class="cls-1" d="M936.53,609.2h26.85L786.92,300.12H753L572.65,609.2H599L767.19,318.75h4.94Z"/><path class="cls-1" d="M1306.13,317.33q-12.9-9-35.4-12.84t-57.09-3.82h-219V609.2h24.66V481H1206.7q32.88,0,52.06,3.57t29,13.42q9.87,9.87,12.6,27.68t2.74,45.76V609.2h25.21v-57q0-21.91-2.75-36.72t-9.33-24.11a41.87,41.87,0,0,0-17.84-14.25q-11.25-4.94-27.71-7.67v-.55a129,129,0,0,0,24.7-6.28,45,45,0,0,0,18.39-12.56q7.41-8.46,11.25-22.4t3.84-36.32V379.87q0-22.94-4.94-38.23A46.21,46.21,0,0,0,1306.13,317.33Zm-2.43,76.5q0,18.63-3.83,31.24a38.73,38.73,0,0,1-13.43,20q-9.6,7.4-26,10.69T1218.76,459H1019.28V321.49H1207.8q30.69,0,49.59,2.47t29,9a32.39,32.39,0,0,1,13.7,18.63q3.55,12.06,3.56,31.79Z"/><path class="cls-1" d="M1706.14,591.12q12.93-9.87,18.15-26.58t5.22-41.93q0-39.45-16.22-56.17t-49.76-18.9a95.38,95.38,0,0,0,21.24-5.46,42.57,42.57,0,0,0,16.89-12q7.06-8.19,11.16-21.3t4.09-32.21q0-23.47-5.49-38.22a46.92,46.92,0,0,0-18.12-23.2q-12.63-8.46-33.21-11.47t-50.78-3H1394.67V609.2H1616.8q33,0,54.71-4.11T1706.14,591.12ZM1419.33,321.49H1608.4q25.75,0,41.92,2.2t25.48,8.54a32.45,32.45,0,0,1,12.88,17.62q3.55,11.29,3.56,29.46,0,17.07-3.56,28.35a38.89,38.89,0,0,1-11.51,18.17q-8,6.89-21.1,9.64t-32.33,2.75H1419.33Zm194.38,265.79H1419.33V459h209.2q20.85,0,35.41,2.74t23.61,9.87q9.06,7.13,13.18,19.45t4.12,32.06q0,19.73-3.3,32.06a33.94,33.94,0,0,1-13.18,19.46q-9.88,7.13-27.72,9.86T1613.71,587.28Z"/><path class="cls-1" d="M869.5,733.68q-5.75-2.77-16.2-3.81t-27.47-1q-14.48,0-23.1-.57T789.63,726c-3-1.14-4.94-2.7-5.86-4.68a17.9,17.9,0,0,1-1.38-7.53v-2.06a20.9,20.9,0,0,1,1.15-7.52c.77-2,2.45-3.58,5.06-4.8s6.47-2,11.61-2.51,12-.69,20.57-.69h5.28a191.43,191.43,0,0,1,21,.92q7.93.93,12.18,3a10.16,10.16,0,0,1,5.52,5.63,27.65,27.65,0,0,1,1.26,9.08v1.38h9.43v-1.84q0-8.51-2.19-13.8a16.23,16.23,0,0,0-7.81-8.25q-5.64-3-15.29-3.9t-24.59-.94h-5.51a194.25,194.25,0,0,0-23.45,1.16q-9.2,1.15-14.48,3.92a15.6,15.6,0,0,0-7.35,7.39,27.6,27.6,0,0,0-2.07,11.31v2.31a34.12,34.12,0,0,0,1.73,11.78c1.14,3.08,3.56,5.54,7.23,7.39s8.93,3.11,15.75,3.81,15.89,1,27.23,1q15.41,0,24.37.69t13.56,2.65q4.59,2,5.86,5.17a23,23,0,0,1,1.26,8.27V756a24.73,24.73,0,0,1-1.26,8.62,10.35,10.35,0,0,1-5.4,5.4q-4.14,2.07-12,2.87t-20.91.81h-7.13q-15.17,0-24-.81T785.84,770c-2.91-1.38-4.75-3.29-5.51-5.75a33,33,0,0,1-1.15-9.65v-1.38h-9.43v2.07q0,8.5,2,13.79a15.25,15.25,0,0,0,7.58,8.27q5.63,3,16.09,4t27.69,1h7.36A176.85,176.85,0,0,0,854.91,781q9.52-1.38,14.93-4.51a16.05,16.05,0,0,0,7.36-8.19,34.9,34.9,0,0,0,1.95-12.46V754a34.61,34.61,0,0,0-1.95-12.7Q875.25,736.45,869.5,733.68Z"/><path class="cls-1" d="M1005,695.87q-6.09-4.95-17-6.68a190.56,190.56,0,0,0-28.62-1.73H955a190.56,190.56,0,0,0-28.62,1.73q-10.92,1.72-17,6.68t-8.27,13.94q-2.19,9-2.18,23.5v3q0,14.52,2.18,23.62T909.37,774q6.09,5,17,6.68A190.56,190.56,0,0,0,955,782.38h4.36A190.56,190.56,0,0,0,988,780.65q10.9-1.73,17-6.68t8.16-14.05q2.07-9.1,2.07-23.62v-3q0-14.52-2.07-23.5T1005,695.87Zm.58,40.55a102.53,102.53,0,0,1-1.49,19.53q-1.5,7.37-6.33,11.26t-14,5.17a187.64,187.64,0,0,1-24.6,1.27H955a187.64,187.64,0,0,1-24.6-1.27q-9.2-1.26-14-5.17T910.06,756a102.53,102.53,0,0,1-1.49-19.53v-3a102.72,102.72,0,0,1,1.49-19.54q1.5-7.35,6.32-11.26t14-5.17a189.42,189.42,0,0,1,24.6-1.27h4.13a189.42,189.42,0,0,1,24.6,1.27q9.18,1.26,14,5.17t6.33,11.26a102.72,102.72,0,0,1,1.49,19.54Z"/><rect class="cls-1" x="1039.34" y="651.15" width="9.65" height="129.62"/><path class="cls-1" d="M1174.25,739.86q0,10.35-2.76,17a21.8,21.8,0,0,1-8.5,10.34,37.3,37.3,0,0,1-14.25,5.06,126.55,126.55,0,0,1-20,1.38h-3.21a117.66,117.66,0,0,1-21-1.5q-7.93-1.49-12.3-5.4a18.88,18.88,0,0,1-5.75-10.68,91.22,91.22,0,0,1-1.37-17.59V689.3h-9.66v53.78q0,11.71,2.19,19.31a23.71,23.71,0,0,0,7.58,12.06q5.4,4.49,14.71,6.21a133,133,0,0,0,23.56,1.72h3.21a121.26,121.26,0,0,0,20-1.38,53,53,0,0,0,13.44-3.91,24.08,24.08,0,0,0,8.62-6.43,34.41,34.41,0,0,0,5.29-9h.23v19.07h9.65V689.3h-9.65Z"/><path class="cls-1" d="M1227.11,665.4h-9.65v24.13h-18.39v7.81h18.39v44.82a122.28,122.28,0,0,0,1.37,20.46q1.38,7.82,5.15,12.18a19.35,19.35,0,0,0,10.43,6,74.06,74.06,0,0,0,17,1.61h4.35a92.81,92.81,0,0,0,18.22-1.49,25.78,25.78,0,0,0,11.57-5.17,19.39,19.39,0,0,0,6.07-10.12,64.83,64.83,0,0,0,1.72-16.31V739.17h-8.73v8.74a82.08,82.08,0,0,1-.81,12.64,13.64,13.64,0,0,1-3.79,7.93,17.07,17.07,0,0,1-8.5,4,74.85,74.85,0,0,1-14.71,1.15h-3.91a68.89,68.89,0,0,1-13.33-1,12.88,12.88,0,0,1-7.81-4.48q-2.76-3.45-3.68-9.88a126.38,126.38,0,0,1-.92-17.24V697.34h66.65v-7.81h-66.65Z"/><rect class="cls-1" x="1314.67" y="689.3" width="9.65" height="91.47"/><rect class="cls-1" x="1314.67" y="651.15" width="9.65" height="14.71"/><path class="cls-1" d="M1454.52,695.87q-6.09-4.95-17-6.68a190.56,190.56,0,0,0-28.62-1.73h-4.36a190.56,190.56,0,0,0-28.62,1.73q-10.92,1.72-17,6.68t-8.27,13.94q-2.19,9-2.18,23.5v3q0,14.52,2.18,23.62t8.27,14.05q6.09,5,17,6.68a190.56,190.56,0,0,0,28.62,1.73h4.36a190.56,190.56,0,0,0,28.62-1.73q10.9-1.73,17-6.68t8.16-14.05q2.07-9.1,2.07-23.62v-3q0-14.52-2.07-23.5T1454.52,695.87Zm.58,40.55a101.59,101.59,0,0,1-1.5,19.53q-1.49,7.37-6.32,11.26t-14,5.17a187.37,187.37,0,0,1-24.59,1.27h-4.13a187.64,187.64,0,0,1-24.6-1.27q-9.2-1.26-14-5.17T1359.6,756a102.53,102.53,0,0,1-1.49-19.53v-3a102.72,102.72,0,0,1,1.49-19.54q1.5-7.35,6.32-11.26t14-5.17a189.42,189.42,0,0,1,24.6-1.27h4.13a189.14,189.14,0,0,1,24.59,1.27q9.2,1.26,14,5.17t6.32,11.26a101.78,101.78,0,0,1,1.5,19.54Z"/><path class="cls-1" d="M1587.59,695.16q-5.4-4.24-14.71-5.86a142.57,142.57,0,0,0-23.56-1.61h-3.21a122.85,122.85,0,0,0-20.23,1.38,51.18,51.18,0,0,0-13.33,3.91,24.07,24.07,0,0,0-8.39,6.32,40.15,40.15,0,0,0-5.4,8.85h-.23V689.3h-9.65v91.47h9.65V729.89q0-10.08,2.76-16.62a22.55,22.55,0,0,1,8.5-10.31,36.33,36.33,0,0,1,14.37-5.16,128.66,128.66,0,0,1,20.11-1.38h3.22a126,126,0,0,1,20.8,1.38q7.92,1.38,12.18,5a18.45,18.45,0,0,1,5.74,10.2,78.91,78.91,0,0,1,1.5,17.08v50.65h9.65v-54.7q0-11.72-2.18-19.19A22.49,22.49,0,0,0,1587.59,695.16Z"/><path class="cls-1" d="M1719.86,733.68q-5.74-2.77-16.21-3.81t-27.46-1q-14.48,0-23.1-.57T1640,726q-4.48-1.71-5.86-4.68a17.9,17.9,0,0,1-1.38-7.53v-2.06a20.9,20.9,0,0,1,1.15-7.52c.77-2,2.45-3.58,5.06-4.8s6.47-2,11.6-2.51,12-.69,20.57-.69h5.29a191.68,191.68,0,0,1,21,.92q7.92.93,12.18,3a10.14,10.14,0,0,1,5.51,5.63,27.36,27.36,0,0,1,1.27,9.08v1.38h9.42v-1.84q0-8.51-2.18-13.8a16.21,16.21,0,0,0-7.82-8.25q-5.62-3-15.28-3.9t-24.59-.94h-5.52a194.18,194.18,0,0,0-23.44,1.16q-9.2,1.15-14.48,3.92a15.56,15.56,0,0,0-7.35,7.39,27.6,27.6,0,0,0-2.07,11.31v2.31a34.14,34.14,0,0,0,1.72,11.78q1.73,4.62,7.24,7.39t15.75,3.81q10.21,1,27.23,1,15.39,0,24.36.69T1713,740.9q4.61,2,5.86,5.17a23,23,0,0,1,1.27,8.27V756a24.7,24.7,0,0,1-1.27,8.62,10.27,10.27,0,0,1-5.4,5.4q-4.14,2.07-12,2.87t-20.91.81h-7.13q-15.17,0-24-.81T1636.2,770c-2.91-1.38-4.75-3.29-5.52-5.75a33,33,0,0,1-1.15-9.65v-1.38h-9.42v2.07q0,8.5,2,13.79a15.24,15.24,0,0,0,7.59,8.27q5.63,3,16.09,4t27.69,1h7.36a176.79,176.79,0,0,0,24.47-1.38q9.54-1.38,14.94-4.51a16.1,16.1,0,0,0,7.36-8.19,34.9,34.9,0,0,0,2-12.46V754a34.61,34.61,0,0,0-2-12.7Q1725.6,736.45,1719.86,733.68Z"/><path class="cls-1" d="M713,726.6s-.07-.06-.1-.1l-39.69-39.69a10.15,10.15,0,0,0-14.35,0h0a10.15,10.15,0,0,0,0,14.36l32.61,32.61L658.9,766.39a10.13,10.13,0,0,0,0,14.35h0a10.13,10.13,0,0,0,14.35,0l39.69-39.69.1-.09h0a10.14,10.14,0,0,0,0-14.36Z"/><path class="cls-1" d="M479.33,726.6l-.11-.1-39.69-39.69a10.15,10.15,0,0,0-14.35,0h0a10.16,10.16,0,0,0,0,14.36l32.61,32.61-32.61,32.61a10.15,10.15,0,0,0,0,14.35h0a10.13,10.13,0,0,0,14.35,0l39.69-39.69.11-.09h0a10.16,10.16,0,0,0,0-14.36Z"/><path class="cls-1" d="M245.61,726.6s-.07-.06-.1-.1l-39.69-39.69a10.16,10.16,0,0,0-14.36,0h0a10.16,10.16,0,0,0,0,14.36l32.61,32.61-32.61,32.61a10.15,10.15,0,0,0,0,14.35h0a10.15,10.15,0,0,0,14.36,0l39.69-39.69.1-.09h0a10.16,10.16,0,0,0,0-14.36Z"/></svg>