<svg width="36" height="36" viewBox="0 0 36 36" fill="none" xmlns="http://www.w3.org/2000/svg">
<g clip-path="url(#clip0_41_187)">
<path d="M2.43287 5.74453C1.63834 5.95547 0.907091 6.50391 0.457091 7.24219C-0.0280656 8.05078 5.94519e-05 7.35469 5.94519e-05 18C5.94519e-05 28.6453 -0.0280656 27.9492 0.457091 28.7578C0.914122 29.5102 1.64537 30.0516 2.46803 30.2625C2.88287 30.368 4.31725 30.375 18.0001 30.375C31.6829 30.375 33.1172 30.368 33.5321 30.2625C34.3547 30.0516 35.086 29.5102 35.543 28.7578C36.0282 27.9492 36.0001 28.6453 36.0001 18C36.0001 7.35469 36.0282 8.05078 35.543 7.24219C35.086 6.48984 34.3547 5.94844 33.5321 5.7375C33.1172 5.63203 31.6899 5.625 17.9579 5.63203C4.55631 5.63203 2.7985 5.64609 2.43287 5.74453ZM33.068 7.83281C33.4196 7.95937 33.6024 8.12812 33.7571 8.47266C33.8837 8.73984 33.8907 9.17578 33.8907 18C33.8907 26.8242 33.8837 27.2602 33.7571 27.5273C33.6024 27.8719 33.4196 28.0406 33.068 28.1672C32.6672 28.3078 3.33287 28.3078 2.93209 28.1672C2.58053 28.0406 2.39772 27.8719 2.24303 27.5273C2.11647 27.2602 2.10943 26.8242 2.10943 18C2.10943 9.17578 2.11647 8.73984 2.24303 8.47266C2.39772 8.12812 2.58053 7.95937 2.93209 7.83281C3.33287 7.69219 32.6672 7.69219 33.068 7.83281Z" fill="white" stroke="black" stroke-width="0.00703125"/>
<path d="M10.7507 9.94926C9.22496 10.336 8.0859 11.4399 7.62183 12.9797C7.43199 13.5985 7.44605 14.7235 7.64293 15.3633C8.31793 17.5079 10.4836 18.7805 12.6914 18.3164C13.9078 18.0633 15.0609 17.1563 15.5953 16.0313C15.9328 15.3211 16.0312 14.8852 16.0312 14.1118C16.0312 12.9797 15.6375 12.0024 14.857 11.1797C14.3718 10.6664 13.8586 10.3289 13.1625 10.0758C12.5718 9.85082 11.3625 9.78754 10.7507 9.94926ZM12.7265 12.2555C13.4859 12.6352 13.8867 13.2961 13.8796 14.175C13.8726 14.9344 13.4086 15.6797 12.7054 16.0454C12.2695 16.2774 11.2781 16.2774 10.8281 16.0454C10.364 15.8063 10.0195 15.4407 9.80855 14.9625C9.16168 13.5141 10.3781 11.8336 11.9531 12.0024C12.1289 12.0164 12.4734 12.136 12.7265 12.2555Z" fill="white" stroke="black" stroke-width="0.00703125"/>
<path d="M19.9125 11.6508C19.6242 11.7914 19.4766 12.0656 19.4766 12.4523C19.4766 12.6844 19.5187 12.7828 19.7156 12.9797L19.9547 13.2188H25.0523H30.15L30.368 13.0359C30.8039 12.6703 30.7758 12.0023 30.3117 11.693L30.0727 11.5312H25.1086C20.6648 11.5312 20.1234 11.5453 19.9125 11.6508Z" fill="white" stroke="black" stroke-width="0.00703125"/>
<path d="M23.6953 16.439C22.943 16.8117 23.1469 17.9086 23.9977 18.0351C24.1594 18.0562 25.6078 18.0703 27.2109 18.0562C29.8547 18.0351 30.143 18.0211 30.3117 17.9086C30.8531 17.5429 30.7828 16.657 30.1852 16.4109C30.0023 16.3336 29.3273 16.3125 26.9508 16.3125C24.2297 16.3125 23.9203 16.3265 23.6953 16.439Z" fill="white" stroke="black" stroke-width="0.00703125"/>
<path d="M9.31641 19.1953C7.74844 19.5188 6.48984 20.7282 6.08906 22.268C6.00469 22.5844 5.97656 23.0485 5.97656 24.0539C5.97656 25.2914 5.99062 25.4391 6.11719 25.65C6.51094 26.2899 7.45312 26.325 7.90312 25.7133C8.03672 25.5305 8.05781 25.3828 8.08594 24.1664C8.12109 22.9922 8.14219 22.7742 8.26875 22.493C8.46563 22.0641 8.86641 21.6774 9.34453 21.4524L9.73828 21.2696H11.7773H13.8164L14.2102 21.4524C14.6742 21.6703 15.0539 22.043 15.2719 22.493C15.4125 22.7813 15.4336 22.95 15.4688 24.1664C15.5039 25.3828 15.518 25.5305 15.6516 25.7133C16.1016 26.325 17.0437 26.2899 17.4375 25.65C17.5641 25.4391 17.5781 25.2914 17.5781 24.0821C17.5781 22.5422 17.5008 22.1133 17.107 21.3469C16.8047 20.7774 16.1086 20.0321 15.5813 19.7227C15.3914 19.6102 15.0328 19.4414 14.7727 19.343C14.3086 19.1672 14.2945 19.1672 11.9531 19.1532C10.6594 19.1391 9.47109 19.1602 9.31641 19.1953Z" fill="white" stroke="black" stroke-width="0.00703125"/>
<path d="M23.6531 19.6594C23.3789 19.793 23.2383 20.0391 23.2383 20.3906C23.2383 20.7281 23.3719 20.9672 23.625 21.1148C23.8008 21.2203 24.1594 21.2344 26.9859 21.2344H30.15L30.368 21.0516C30.8039 20.6859 30.7758 20.018 30.3117 19.7086L30.0727 19.5469H26.9719C24.3281 19.5469 23.8359 19.568 23.6531 19.6594Z" fill="white" stroke="black" stroke-width="0.00703125"/>
<path d="M19.7156 23.0203C19.5187 23.2172 19.4766 23.3156 19.4766 23.5477C19.4766 23.9414 19.6312 24.2156 19.9266 24.3563C20.1375 24.4547 20.6789 24.4688 25.1227 24.4688H30.0727L30.3117 24.307C30.7758 23.9977 30.8039 23.3297 30.368 22.9641L30.15 22.7812H25.0523H19.9547L19.7156 23.0203Z" fill="white" stroke="black" stroke-width="0.00703125"/>
</g>
<defs>
<clipPath id="clip0_41_187">
<rect width="36" height="36" fill="white"/>
</clipPath>
</defs>
</svg>
