<svg width="43" height="43" viewBox="0 0 43 43" fill="none" xmlns="http://www.w3.org/2000/svg">
<path d="M15.0499 30.4583L21.4999 24.0083L27.9499 30.4583L30.4583 27.95L24.0083 21.5L30.4583 15.05L27.9499 12.5417L21.4999 18.9917L15.0499 12.5417L12.5416 15.05L18.9916 21.5L12.5416 27.95L15.0499 30.4583ZM21.4999 39.4167C19.0214 39.4167 16.6923 38.9464 14.5124 38.0057C12.3326 37.0651 10.4364 35.7886 8.82388 34.1761C7.21138 32.5636 5.93481 30.6674 4.99419 28.4875C4.05356 26.3076 3.58325 23.9785 3.58325 21.5C3.58325 19.0215 4.05356 16.6924 4.99419 14.5125C5.93481 12.3326 7.21138 10.4365 8.82388 8.82397C10.4364 7.21147 12.3326 5.93491 14.5124 4.99428C16.6923 4.05366 19.0214 3.58334 21.4999 3.58334C23.9784 3.58334 26.3076 4.05366 28.4874 4.99428C30.6673 5.93491 32.5635 7.21147 34.176 8.82397C35.7885 10.4365 37.065 12.3326 38.0056 14.5125C38.9463 16.6924 39.4166 19.0215 39.4166 21.5C39.4166 23.9785 38.9463 26.3076 38.0056 28.4875C37.065 30.6674 35.7885 32.5636 34.176 34.1761C32.5635 35.7886 30.6673 37.0651 28.4874 38.0057C26.3076 38.9464 23.9784 39.4167 21.4999 39.4167ZM21.4999 35.8333C25.5013 35.8333 28.8905 34.4448 31.6676 31.6677C34.4447 28.8906 35.8333 25.5014 35.8333 21.5C35.8333 17.4986 34.4447 14.1094 31.6676 11.3323C28.8905 8.55522 25.5013 7.16668 21.4999 7.16668C17.4985 7.16668 14.1093 8.55522 11.3322 11.3323C8.55513 14.1094 7.16659 17.4986 7.16659 21.5C7.16659 25.5014 8.55513 28.8906 11.3322 31.6677C14.1093 34.4448 17.4985 35.8333 21.4999 35.8333Z" fill="white"/>
</svg>
