<svg width="236" height="74" viewBox="0 0 236 74" fill="none" xmlns="http://www.w3.org/2000/svg">
<path d="M207.256 0.101433C205.661 0.313461 203.55 1.03252 202.204 1.82534C199.282 3.53081 197.041 6.22268 196.046 9.21877C195.484 10.915 195.391 11.5327 195.391 13.6438C195.391 15.2847 195.419 15.6627 195.603 16.4831C195.908 17.8567 196.212 18.7141 196.765 19.8664C197.779 21.9499 199.236 23.6 201.31 25.0289C202.914 26.1352 203.273 26.4394 203.467 26.8727C203.679 27.3244 203.688 27.6563 203.495 28.0988C203.209 28.7902 202.619 29.2235 201.964 29.2235C201.513 29.2235 198.858 28.6427 194.423 27.5641C188.671 26.1721 188.155 26.0891 186.91 26.4117C185.656 26.7436 184.347 27.7761 183.757 28.9008C183.269 29.8503 182.347 33.6392 182.347 34.7271C182.347 36.0546 182.872 37.3083 183.822 38.2578C184.781 39.2166 185.278 39.4286 188.431 40.1938C196.59 42.185 197.761 42.4892 198.231 42.7197C200.277 43.7153 200.766 45.9094 199.383 47.9191C199.217 48.1588 197.198 50.6939 194.894 53.561C188.579 61.4061 187.048 63.342 186.818 63.7938C185.988 65.4347 186.126 67.5827 187.159 69.113C187.445 69.537 187.878 69.9611 188.652 70.5972C189.261 71.0858 190.044 71.7311 190.404 72.0261C192.017 73.3444 193.64 73.7316 195.437 73.2245C196.673 72.8835 197.346 72.3488 198.719 70.6433C203.946 64.1533 207.035 60.3828 207.32 60.1339C208.519 59.0738 209.57 59.0738 210.713 60.1339C210.943 60.346 212.732 62.4939 214.686 64.9C220.614 72.2013 220.807 72.4133 221.683 72.8558C223.186 73.621 225.232 73.6025 226.578 72.8189C227.168 72.4778 229.962 70.1824 230.496 69.6108C231.474 68.5414 231.907 67.343 231.824 65.868C231.778 64.9553 231.492 64.0703 231.04 63.3974C230.902 63.1853 228.146 59.7283 224.937 55.7274C218.226 47.3752 218.687 47.9744 218.318 47.2277C217.59 45.7988 217.904 44.1394 219.065 43.2267C219.858 42.5999 220.015 42.5538 228.929 40.3781C232.912 39.4102 233.308 39.2535 234.221 38.3408C235.207 37.3544 235.742 36.073 235.742 34.7178C235.742 33.3535 234.7 29.3894 234.119 28.5228C233.419 27.4903 232.128 26.6053 230.948 26.3564C229.906 26.1444 229.031 26.2735 224.891 27.2783C216.189 29.3986 216.143 29.3986 215.405 29.0483C214.714 28.7072 214.345 27.896 214.539 27.1308C214.659 26.633 215 26.3196 216.816 25.0289C217.618 24.4666 218.54 23.7106 218.918 23.3235C222.458 19.7005 223.739 13.9756 222.07 9.24643C220.429 4.61861 216.438 1.18924 211.57 0.230492C210.63 0.0461197 208.205 -0.0276337 207.256 0.101433Z" fill="#FFFEFE"/>
<path d="M60.1523 5.4852C57.5619 6.05676 55.4877 7.72535 54.3538 10.1499C53.6992 11.5696 53.607 12.0029 53.6163 13.6438C53.6255 14.9068 53.6531 15.1649 53.8652 15.8655C54.3353 17.405 54.8792 18.3638 55.9025 19.4424C56.6216 20.1891 57.4052 20.7514 58.3731 21.1939C59.3227 21.6364 60.0233 21.8208 61.0466 21.9314C63.4527 22.1711 65.9417 21.3138 67.6103 19.6636C69.3066 17.995 70.1547 15.9946 70.1547 13.6807C70.1547 9.62442 67.4536 6.34254 63.3973 5.4852C62.623 5.31926 60.9083 5.31926 60.1523 5.4852Z" fill="#FFFEFE"/>
<path d="M8.6748 25.6373C7.9834 25.7756 7.38418 25.9969 5.94605 26.6698C5.19011 27.0202 4.19449 27.4627 3.73355 27.647C2.70105 28.0619 1.98199 28.532 1.39199 29.1866C0.0921465 30.6155 -0.129104 32.5606 0.811209 34.432C1.02324 34.8653 6.63746 44.8677 14.455 58.7234C16.354 62.0975 18.0871 65.112 18.3176 65.4347C18.7878 66.0984 19.5068 66.6977 20.3181 67.1033C21.2768 67.5827 21.8484 67.6841 23.9595 67.7025C26.2642 67.7302 27.5087 67.6472 28.3107 67.3983C29.4631 67.0387 30.6984 66.0431 31.3714 64.9277C31.8968 64.0519 48.2785 34.893 48.5643 34.3122C48.9239 33.6023 49.0621 33.0031 49.0529 32.1458C49.0437 31.2608 48.9423 30.8367 48.509 30.007C47.8545 28.7625 47.2829 28.3569 44.2961 27.0478C41.7701 25.9323 41.4475 25.8033 40.839 25.6558C39.1889 25.2686 37.1607 26.0061 36.0453 27.4073C35.7503 27.7761 34.054 31.1041 30.1453 38.9953L24.6693 50.067L21.8484 44.4159C20.2996 41.3092 17.7921 36.2573 16.2711 33.1967C13.6345 27.8775 13.4778 27.6009 12.9523 27.0662C11.8 25.9047 10.1406 25.3516 8.6748 25.6373Z" fill="#FFFEFE"/>
<path d="M82.9134 25.665C82.2957 25.8125 81.4384 26.1628 79.0046 27.2598C76.8198 28.2554 76.7092 28.32 76.1099 28.8639C74.847 30.0162 74.3307 32.0259 74.8838 33.6484C74.9945 33.9803 76.617 36.9672 78.4884 40.2859C80.3598 43.6047 84.2317 50.4911 87.0895 55.5798C89.9473 60.6686 92.4179 65.0198 92.5746 65.2595C93.0724 65.9786 93.8468 66.67 94.5843 67.0387C95.8104 67.6564 96.1423 67.7025 99.0646 67.6933C100.761 67.6933 101.83 67.6472 102.153 67.5734C103.444 67.2784 104.882 66.3012 105.582 65.2503C106.016 64.5865 122.849 34.6625 123.126 34.0633C124.038 32.0812 123.236 29.4262 121.402 28.3292C120.609 27.859 115.944 25.8217 115.308 25.6742C113.722 25.3055 112.063 25.8033 110.809 27.0386C110.238 27.6101 110.21 27.647 106.108 35.907C103.849 40.4703 101.36 45.5037 100.576 47.0801C99.8021 48.6658 99.1292 49.9656 99.0923 49.9656C99.0277 49.9656 95.9671 43.8628 91.0351 33.8789C89.7352 31.2423 88.5552 28.8639 88.4262 28.5965C88.0574 27.859 87.3107 26.9187 86.7945 26.5315C86.5456 26.3379 86.0201 26.0522 85.6421 25.8955C84.8217 25.5451 83.7984 25.4622 82.9134 25.665Z" fill="#FFFEFE"/>
<path d="M144.412 25.8217C139.821 26.3195 135.423 28.3753 132.095 31.5926C128.638 34.939 126.518 39.0782 125.827 43.8628C125.55 45.7803 125.605 48.7764 125.965 50.6109C126.767 54.8331 128.592 58.3731 131.505 61.3876C132.768 62.6967 133.626 63.4157 135.11 64.4021C140.411 67.9421 147.214 68.8456 153.326 66.8267C159.558 64.7617 164.462 59.9403 166.629 53.7453C167.514 51.1917 167.827 49.099 167.754 46.1859C167.671 42.9224 167.099 40.5348 165.716 37.6585C162.702 31.3806 156.848 27.0201 149.989 25.9507C148.818 25.7664 145.592 25.6926 144.412 25.8217ZM147.832 38.6357C148.8 38.7648 150.118 39.2534 150.985 39.7973C151.888 40.3596 153.105 41.5212 153.667 42.3601C154.202 43.1621 154.654 44.2315 154.847 45.1165C155.059 46.1398 155.032 48.0849 154.792 48.9976C154.008 51.9476 151.593 54.3353 148.689 55.0359C147.721 55.2664 146.053 55.2848 145.029 55.0728C142.162 54.4828 139.775 52.344 138.844 49.5415C137.848 46.5362 138.613 43.3465 140.89 41.0326C142.679 39.2073 145.352 38.2854 147.832 38.6357Z" fill="#FFFEFE"/>
<path d="M58.6312 26.2826C57.4788 26.4762 56.0499 27.4718 55.4138 28.5228C55.2479 28.8086 54.999 29.3248 54.8607 29.6659L54.621 30.2836V46.7851C54.621 64.7986 54.5841 63.7107 55.1649 64.9C55.5245 65.6559 56.5201 66.6792 57.2945 67.0848C58.3454 67.6379 58.7141 67.6932 61.2585 67.7117C64.946 67.7393 65.8126 67.5918 67.0571 66.7068C68.0988 65.9601 68.8087 64.7986 69.0944 63.3789C69.2235 62.7151 69.2327 60.9451 69.2051 46.5547C69.1774 29.1589 69.2051 30.1729 68.6612 29.0667C68.0804 27.8775 67.0663 26.9279 65.8494 26.4486C65.3332 26.2365 65.2318 26.2273 62.2265 26.2181C60.5302 26.2089 58.9077 26.2365 58.6312 26.2826Z" fill="#FFFEFE"/>
</svg>
