<svg width="39" height="39" viewBox="0 0 39 39" fill="none" xmlns="http://www.w3.org/2000/svg">
<path d="M14.625 34.125H8.125C7.23125 34.125 6.46615 33.8068 5.82969 33.1703C5.19323 32.5339 4.875 31.7687 4.875 30.875V19.5C4.875 17.4688 5.26094 15.5661 6.03281 13.7922C6.80469 12.0182 7.8474 10.4745 9.16094 9.16094C10.4745 7.8474 12.0182 6.80469 13.7922 6.03281C15.5661 5.26094 17.4688 4.875 19.5 4.875C21.5312 4.875 23.4339 5.26094 25.2078 6.03281C26.9818 6.80469 28.5255 7.8474 29.8391 9.16094C31.1526 10.4745 32.1953 12.0182 32.9672 13.7922C33.7391 15.5661 34.125 17.4688 34.125 19.5V30.875C34.125 31.7687 33.8068 32.5339 33.1703 33.1703C32.5339 33.8068 31.7687 34.125 30.875 34.125H24.375V21.125H30.875V19.5C30.875 16.3312 29.7714 13.6432 27.5641 11.4359C25.3568 9.22865 22.6687 8.125 19.5 8.125C16.3312 8.125 13.6432 9.22865 11.4359 11.4359C9.22865 13.6432 8.125 16.3312 8.125 19.5V21.125H14.625V34.125ZM11.375 24.375H8.125V30.875H11.375V24.375ZM27.625 24.375V30.875H30.875V24.375H27.625Z" fill="#261738"/>
</svg>
