<svg width="34" height="34" viewBox="0 0 34 34" fill="none" xmlns="http://www.w3.org/2000/svg">
<path d="M21.9583 28.2271L15.9375 22.2063L17.9208 20.2229L21.9583 24.2604L29.9625 16.2563L31.9458 18.2396L21.9583 28.2271ZM29.75 14.1667H26.9167V7.08335H24.0833V11.3334H9.91667V7.08335H7.08333V26.9167H15.5833V29.75H7.08333C6.30417 29.75 5.63715 29.4726 5.08229 28.9177C4.52743 28.3629 4.25 27.6959 4.25 26.9167V7.08335C4.25 6.30419 4.52743 5.63717 5.08229 5.08231C5.63715 4.52745 6.30417 4.25002 7.08333 4.25002H12.9979C13.2576 3.42363 13.7653 2.74481 14.5208 2.21356C15.2764 1.68231 16.1028 1.41669 17 1.41669C17.9444 1.41669 18.7885 1.68231 19.5323 2.21356C20.276 2.74481 20.7778 3.42363 21.0375 4.25002H26.9167C27.6958 4.25002 28.3629 4.52745 28.9177 5.08231C29.4726 5.63717 29.75 6.30419 29.75 7.08335V14.1667ZM17 7.08335C17.4014 7.08335 17.7378 6.94759 18.0094 6.67606C18.2809 6.40453 18.4167 6.06808 18.4167 5.66669C18.4167 5.2653 18.2809 4.92884 18.0094 4.65731C17.7378 4.38578 17.4014 4.25002 17 4.25002C16.5986 4.25002 16.2622 4.38578 15.9906 4.65731C15.7191 4.92884 15.5833 5.2653 15.5833 5.66669C15.5833 6.06808 15.7191 6.40453 15.9906 6.67606C16.2622 6.94759 16.5986 7.08335 17 7.08335Z" fill="#261738"/>
</svg>
