<svg width="30" height="30" viewBox="0 0 30 30" fill="none" xmlns="http://www.w3.org/2000/svg">
<path d="M9.75 29.25H3.25C2.35625 29.25 1.59115 28.9318 0.954687 28.2953C0.318229 27.6589 0 26.8937 0 26V14.625C0 12.5937 0.385937 10.6911 1.15781 8.91719C1.92969 7.14323 2.9724 5.59948 4.28594 4.28594C5.59948 2.9724 7.14323 1.92969 8.91719 1.15781C10.6911 0.385937 12.5937 0 14.625 0C16.6562 0 18.5589 0.385937 20.3328 1.15781C22.1068 1.92969 23.6505 2.9724 24.9641 4.28594C26.2776 5.59948 27.3203 7.14323 28.0922 8.91719C28.8641 10.6911 29.25 12.5937 29.25 14.625V26C29.25 26.8937 28.9318 27.6589 28.2953 28.2953C27.6589 28.9318 26.8937 29.25 26 29.25H19.5V16.25H26V14.625C26 11.4562 24.8964 8.76823 22.6891 6.56094C20.4818 4.35365 17.7937 3.25 14.625 3.25C11.4562 3.25 8.76823 4.35365 6.56094 6.56094C4.35365 8.76823 3.25 11.4562 3.25 14.625V16.25H9.75V29.25ZM6.5 19.5H3.25V26H6.5V19.5ZM22.75 19.5V26H26V19.5H22.75Z" fill="white"/>
</svg>
